<svg width="18" height="18" viewBox="0 0 18 18" fill="none" xmlns="http://www.w3.org/2000/svg">
<path d="M9.00827 0.675781C9.65642 0.675821 10.2824 0.911924 10.7691 1.33995L10.8974 1.46078L11.4791 2.04245C11.6387 2.20104 11.8472 2.30116 12.0708 2.32661L12.1833 2.33328H13.0166C13.6976 2.33324 14.3528 2.59376 14.8479 3.0614C15.343 3.52904 15.6404 4.16837 15.6791 4.84828L15.6833 4.99995V5.83328C15.6833 6.05828 15.7599 6.27745 15.8983 6.45245L15.9733 6.53578L16.5541 7.11745C17.0355 7.59615 17.3162 8.24046 17.339 8.91901C17.3618 9.59755 17.1249 10.2592 16.6766 10.7691L16.5558 10.8974L15.9741 11.4791C15.8155 11.6387 15.7154 11.8472 15.6899 12.0708L15.6833 12.1833V13.0166C15.6833 13.6976 15.4228 14.3529 14.9552 14.8479C14.4875 15.343 13.8482 15.6404 13.1683 15.6791L13.0166 15.6833H12.1833C11.9586 15.6834 11.7405 15.7591 11.5641 15.8983L11.4808 15.9733L10.8991 16.5541C10.4204 17.0355 9.77609 17.3163 9.09754 17.339C8.419 17.3618 7.75733 17.1249 7.24744 16.6766L7.1191 16.5558L6.53744 15.9741C6.3778 15.8155 6.16935 15.7154 5.94577 15.6899L5.83327 15.6833H4.99994C4.31892 15.6833 3.6637 15.4228 3.16863 14.9552C2.67356 14.4875 2.37617 13.8482 2.33744 13.1683L2.33327 13.0166V12.1833C2.3332 11.9586 2.25746 11.7405 2.11827 11.5641L2.04327 11.4808L1.46244 10.8991C0.981004 10.4204 0.700289 9.7761 0.677526 9.09756C0.654763 8.41902 0.891668 7.75734 1.33994 7.24745L1.46077 7.11912L2.04244 6.53745C2.20103 6.37782 2.30115 6.16936 2.3266 5.94578L2.33327 5.83328V4.99995L2.33744 4.84828C2.37465 4.19449 2.65112 3.57724 3.11418 3.11419C3.57723 2.65114 4.19447 2.37466 4.84827 2.33745L4.99994 2.33328H5.83327C6.05795 2.33321 6.27606 2.25747 6.45244 2.11828L6.53577 2.04328L7.11744 1.46245C7.36522 1.21319 7.65983 1.01537 7.98432 0.880364C8.30882 0.745359 8.65681 0.675832 9.00827 0.675781ZM12.0891 6.74412C11.9328 6.58789 11.7209 6.50013 11.4999 6.50013C11.279 6.50013 11.067 6.58789 10.9108 6.74412L8.1666 9.48745L7.0891 8.41078L7.01077 8.34162C6.84328 8.21211 6.63277 8.1512 6.422 8.17128C6.21123 8.19136 6.016 8.29091 5.87598 8.44972C5.73595 8.60852 5.66162 8.81467 5.66808 9.0263C5.67454 9.23792 5.76131 9.43915 5.91077 9.58912L7.57744 11.2558L7.65577 11.3249C7.81611 11.4493 8.01631 11.5109 8.21884 11.4982C8.42136 11.4855 8.61227 11.3993 8.75577 11.2558L12.0891 7.92245L12.1583 7.84412C12.2826 7.68378 12.3442 7.48357 12.3315 7.28105C12.3188 7.07853 12.2326 6.88761 12.0891 6.74412Z" fill="#15D2E8"/>
</svg>
