<svg width="18" height="18" viewBox="0 0 18 18" fill="none" xmlns="http://www.w3.org/2000/svg">
<path d="M13.1667 1.78357C14.4236 2.50928 15.4692 3.55067 16.1999 4.80465C16.9307 6.05863 17.3212 7.48171 17.3329 8.93302C17.3447 10.3843 16.9771 11.8135 16.2668 13.0792C15.5564 14.3448 14.5278 15.4029 13.2828 16.1488C12.0378 16.8948 10.6196 17.3026 9.1685 17.332C7.71744 17.3613 6.28387 17.0112 5.00971 16.3163C3.73555 15.6213 2.66497 14.6057 1.90397 13.3698C1.14297 12.134 0.717922 10.7208 0.670915 9.27024L0.666748 9.00024L0.670915 8.73024C0.717584 7.29106 1.13637 5.88854 1.88645 4.6594C2.63652 3.43026 3.69229 2.41645 4.95082 1.7168C6.20936 1.01716 7.6277 0.655567 9.06759 0.667267C10.5075 0.678968 11.9198 1.06357 13.1667 1.78357ZM7.75925 6.6169C7.58465 6.51297 7.37809 6.47641 7.17842 6.51409C6.97876 6.55178 6.79974 6.66112 6.67504 6.82155C6.55034 6.98198 6.48855 7.18245 6.5013 7.38524C6.51404 7.58803 6.60044 7.77918 6.74425 7.92274L7.82092 9.00024L6.74425 10.0777L6.67508 10.1561C6.54557 10.3236 6.48467 10.5341 6.50475 10.7448C6.52483 10.9556 6.62438 11.1508 6.78318 11.2909C6.94199 11.4309 7.14814 11.5052 7.35976 11.4988C7.57139 11.4923 7.77262 11.4055 7.92258 11.2561L9.00008 10.1794L10.0776 11.2561L10.1559 11.3252C10.3234 11.4547 10.5339 11.5156 10.7447 11.4956C10.9555 11.4755 11.1507 11.3759 11.2907 11.2171C11.4307 11.0583 11.5051 10.8522 11.4986 10.6406C11.4921 10.4289 11.4054 10.2277 11.2559 10.0777L10.1792 9.00024L11.2559 7.92274L11.3251 7.8444C11.4546 7.67691 11.5155 7.4664 11.4954 7.25563C11.4753 7.04486 11.3758 6.84964 11.217 6.70961C11.0582 6.56958 10.852 6.49525 10.6404 6.50171C10.4288 6.50817 10.2275 6.59495 10.0776 6.7444L9.00008 7.82107L7.92258 6.7444L7.84425 6.67524L7.75925 6.6169Z" fill="white" fill-opacity="0.2"/>
</svg>
